<?xml version="1.0" encoding="UTF-8" standalone="no"?>
<svg width="211px" height="211px" viewBox="0 0 211 211" version="1.1" xmlns="http://www.w3.org/2000/svg" xmlns:xlink="http://www.w3.org/1999/xlink" xmlns:sketch="http://www.bohemiancoding.com/sketch/ns">
    <!-- Generator: Sketch 3.3.1 (12002) - http://www.bohemiancoding.com/sketch -->
    <title>pd_logo</title>
    <desc>Created with Sketch.</desc>
    <defs></defs>
    <g id="logo" stroke="none" stroke-width="1" fill="none" fill-rule="evenodd" sketch:type="MSPage">
        <g id="pd_logo" sketch:type="MSArtboardGroup">
            <rect id="bg" fill="#E6D9C8" sketch:type="MSShapeGroup" x="0.5" y="0.5" width="210" height="210" rx="1047.26368"></rect>
            <path d="M105.514449,198.528897 C156.884913,198.528897 198.528897,156.884913 198.528897,105.514449 C198.528897,54.1439846 156.884913,12.5 105.514449,12.5 C54.1439846,12.5 12.5,54.1439846 12.5,105.514449 C12.5,156.884913 54.1439846,198.528897 105.514449,198.528897 Z" id="circle" stroke="#FFFFFF" stroke-width="4" sketch:type="MSShapeGroup"></path>
            <path d="M93,101.633821 C96.9097366,100.251928 101.117057,99.5 105.5,99.5 C126.210678,99.5 143,116.289322 143,137 C143,157.710678 126.210678,174.5 105.5,174.5 C84.7893219,174.5 68,157.710678 68,137 C68,136.709442 68.0033045,136.419656 68.0098781,136.130678 C68.0033133,135.965127 68,135.79874 68,135.631578 L68,80.3684221 C68,73.5302878 73.5390561,68 80.3718282,68 L80.6281718,68 C87.4671993,68 93,73.5375312 93,80.3684221 L93,101.633821 L93,101.633821 Z M105.5,150 C98.3202983,150 92.5,144.179702 92.5,137 C92.5,129.820298 98.3202983,124 105.5,124 C112.679702,124 118.5,129.820298 118.5,137 C118.5,144.179702 112.679702,150 105.5,150 Z" id="p" fill="#4A4A4A" sketch:type="MSShapeGroup" transform="translate(105.500000, 121.250000) scale(1, -1) translate(-105.500000, -121.250000) "></path>
            <path d="M118,66.1637698 L118,48.8684221 C118,42.0302878 123.539056,36.5 130.371828,36.5 L130.628172,36.5 C137.467199,36.5 143,42.0375312 143,48.8684221 L143,87.282837 C138.503573,76.8423049 129.322987,69.0065403 118,66.1637698 Z" id="d" fill="#B0C2D6" sketch:type="MSShapeGroup"></path>
        </g>
    </g>
</svg>