<?xml version="1.0" encoding="UTF-8" standalone="no"?>
<svg width="211px" height="211px" viewBox="0 0 211 211" version="1.1" xmlns="http://www.w3.org/2000/svg" xmlns:xlink="http://www.w3.org/1999/xlink" xmlns:sketch="http://www.bohemiancoding.com/sketch/ns">
    <!-- Generator: Sketch 3.4 (15575) - http://www.bohemiancoding.com/sketch -->
    <title>pd_pin</title>
    <desc>Created with Sketch.</desc>
    <defs></defs>
    <g id="logo" stroke="none" stroke-width="1" fill="none" fill-rule="evenodd" sketch:type="MSPage">
        <g id="pd_pin" sketch:type="MSArtboardGroup" fill="#4A4A4A">
            <path d="M0.5,105.5 C0.5,47.5101013 47.513688,0.5 105.5,0.5 C163.489899,0.5 210.5,47.513688 210.5,105.5 C210.5,163.489899 163.486312,210.5 105.5,210.5 C47.5101013,210.5 0.5,163.486312 0.5,105.5 Z M105.014759,200.029519 C157.489965,200.029519 200.029519,157.489965 200.029519,105.014759 C200.029519,52.5395542 157.489965,10 105.014759,10 C52.5395542,10 10,52.5395542 10,105.014759 C10,157.489965 52.5395542,200.029519 105.014759,200.029519 Z M105,196 C155.257915,196 196,155.257915 196,105 C196,54.7420853 155.257915,14 105,14 C54.7420853,14 14,54.7420853 14,105 C14,155.257915 54.7420853,196 105,196 Z M118,66.1637698 L118,48.8684221 C118,42.0302878 123.539056,36.5 130.371828,36.5 L130.628172,36.5 C137.467199,36.5 143,42.0375312 143,48.8684221 L143,87.282837 C138.503573,76.8423049 129.322987,69.0065403 118,66.1637698 Z M93,140.866179 C96.9097366,142.248072 101.117057,143 105.5,143 C126.210678,143 143,126.210678 143,105.5 C143,84.789322 126.210678,68 105.5,68 C84.7893219,68 68,84.789322 68,105.5 C68,105.790558 68.0033045,106.080344 68.0098781,106.369322 C68.0033133,106.534873 68,106.70126 68,106.868422 L68,162.131578 C68,168.969712 73.5390561,174.5 80.3718282,174.5 L80.6281718,174.5 C87.4671993,174.5 93,168.962469 93,162.131578 L93,140.866179 Z M105.5,118.5 C98.3202983,118.5 92.5,112.679702 92.5,105.5 C92.5,98.320298 98.3202983,92.5 105.5,92.5 C112.679702,92.5 118.5,98.320298 118.5,105.5 C118.5,112.679702 112.679702,118.5 105.5,118.5 Z" id="bg" sketch:type="MSShapeGroup"></path>
        </g>
    </g>
</svg>